<svg xmlns="http://www.w3.org/2000/svg" style="display: none">
  <symbol id="plus" viewBox="0 0 16 16" fill="none">
    <rect x="7" y="2" width="1" height="11" fill="currentColor"/>
    <rect x="2" y="7" width="11" height="1" fill="currentColor"/>
  </symbol>
  <symbol id="scrap" viewBox="0 0 24 24">
    <path d="M12.0041 4.00003C12.2846 3.99741 12.5411 4.1516 12.6657 4.39569L14.5866 8.268C14.6597 8.41522 14.8004 8.51715 14.963 8.54066L19.3863 9.17992C19.6559 9.21628 19.8775 9.39291 19.9672 9.63747C20.0455 9.85954 19.9841 10.1128 19.8065 10.2815L16.5605 13.4296C16.4419 13.5446 16.3878 13.7107 16.4159 13.8735L17.1683 18.2355C17.2104 18.4773 17.1014 18.7235 16.8798 18.872C16.7557 18.9546 16.6051 18.9992 16.4505 18.9992C16.3225 18.9992 16.1978 18.9693 16.0878 18.9119L12.2311 16.8945C12.086 16.8186 11.9128 16.8186 11.7676 16.8945L7.91128 18.9121C7.66011 19.0429 7.35458 19.027 7.11828 18.8705C6.9007 18.7285 6.79022 18.4796 6.83107 18.2319L7.58288 13.8735C7.61095 13.7107 7.55685 13.5446 7.4383 13.4296L4.1969 10.2851C4.01579 10.1128 3.95435 9.85939 4.03461 9.63115C4.12199 9.39278 4.34351 9.21619 4.60828 9.18061L9.03729 8.54066C9.2 8.51715 9.34076 8.41516 9.41377 8.26786L11.3357 4.39038C11.4522 4.15577 11.7114 4.00005 12.0041 4.00003Z" fill="currentColor" />
    <path fill-rule="evenodd" clip-rule="evenodd" d="M11.8479 3.00643L11.9972 3L12.1459 3.00511C12.7447 3.0512 13.2821 3.40323 13.5593 3.94607L15.3652 7.587L19.525 8.18949C20.1034 8.26745 20.599 8.63058 20.8471 9.1527L20.9085 9.29895C21.1203 9.89947 20.9585 10.5667 20.4992 11.0029L17.4462 13.963L18.1539 18.0647C18.2562 18.6513 18.0237 19.2389 17.5571 19.6142L17.4356 19.7035C17.1443 19.8974 16.8006 19.9991 16.4508 19.9991C16.1636 19.9991 15.88 19.9312 15.625 19.7982L11.9992 17.901L8.37432 19.7986C7.84773 20.0728 7.22083 20.0652 6.7066 19.7883L6.56931 19.7061C6.02352 19.35 5.73914 18.7091 5.84534 18.0655L6.55222 13.963L3.50442 11.0062C3.07768 10.6001 2.90712 10.0009 3.05117 9.4341L3.09377 9.29322C3.31152 8.69888 3.84414 8.2743 4.4705 8.19015L8.63422 7.588L10.4402 3.94592C10.7061 3.41054 11.2454 3.05756 11.8479 3.00643ZM12.666 4.39563C12.5414 4.15155 12.2849 3.99735 12.0044 3.99998C11.7117 4 11.4526 4.15571 11.3361 4.39033L9.41409 8.2678C9.34108 8.4151 9.20032 8.5171 9.03761 8.54061L4.6086 9.18055C4.34384 9.21613 4.12232 9.39272 4.03494 9.63109C3.95468 9.85933 4.01612 10.1127 4.19722 10.2851L7.43863 13.4296C7.55717 13.5446 7.61128 13.7107 7.5832 13.8734L6.8314 18.2319C6.79055 18.4795 6.90103 18.7285 7.1186 18.8704C7.3549 19.0269 7.66043 19.0429 7.91161 18.9121L11.7679 16.8945C11.9131 16.8185 12.0863 16.8185 12.2315 16.8945L16.0881 18.9119C16.1981 18.9693 16.3228 18.9991 16.4508 18.9991C16.6055 18.9991 16.756 18.9546 16.8801 18.8719C17.1017 18.7234 17.2108 18.4773 17.1686 18.2355L16.4162 13.8734C16.3881 13.7106 16.4423 13.5445 16.5608 13.4295L19.8068 10.2814C19.9844 10.1127 20.0458 9.85949 19.9675 9.63742C19.8778 9.39285 19.6562 9.21622 19.3867 9.17987L14.9633 8.5406C14.8007 8.5171 14.66 8.41517 14.5869 8.26795L12.666 4.39563Z"/>
  </symbol>
  <symbol id="close-16" viewBox="0 0 16 16" fill="none" >
    <path d="M12.546 2.64648L13.2531 3.35359L3.35359 13.2531L2.64648 12.546L12.546 2.64648Z" fill="currentColor"/>
    <path d="M3.35359 2.64648L13.2531 12.546L12.546 13.2531L2.64648 3.35359L3.35359 2.64648Z" fill="currentColor"/>
  </symbol>
  <symbol id="information-circle" viewBox="0 0 24 24" fill="none">
    <path fill-rule="evenodd" clip-rule="evenodd" d="M22 12C22 6.47715 17.5228 2 12 2C6.47715 2 2 6.47715 2 12C2 17.5228 6.47715 22 12 22C17.5228 22 22 17.5228 22 12ZM3.5 12C3.5 7.30558 7.30558 3.5 12 3.5C16.6944 3.5 20.5 7.30558 20.5 12C20.5 16.6944 16.6944 20.5 12 20.5C7.30558 20.5 3.5 16.6944 3.5 12ZM13.25 8.25C13.25 8.94 12.69 9.5 12 9.5C11.31 9.5 10.75 8.94 10.75 8.25C10.75 7.55937 11.31 7 12 7C12.69 7 13.25 7.55937 13.25 8.25ZM12.9933 11.8834C12.9355 11.386 12.5128 11 12 11C11.4477 11 11 11.4477 11 12V16.5L11.0067 16.6166C11.0645 17.114 11.4872 17.5 12 17.5C12.5523 17.5 13 17.0523 13 16.5V12L12.9933 11.8834Z" fill="currentColor"/>
  </symbol>
  <symbol id="share-naver" viewBox="0 0 32 32" fill="none">
    <rect x="3.6" y="6.6" width="23.8" height="20.8" rx="3.4" stroke="#58B04B" stroke-width="1.2"/>
    <path d="M10.0302 13L10 21.9711L13.7387 21.9854L13.7538 18.3574L13.5076 17.222L17.0462 21.9711L20.8 22L20.7845 13.0289L17.0307 13.0146L17.1074 16.7154L17.3537 18.0361L13.7538 13.0146L10.0302 13Z" fill="#58B04B"/>
    <path d="M11 4L11 8" stroke="#58B04B" stroke-width="1.2" stroke-linecap="round"/>
    <path d="M20 4L20 8" stroke="#58B04B" stroke-width="1.2" stroke-linecap="round"/>
    <path d="M4 9C4 7.89543 4.89543 7 6 7H25C26.1046 7 27 7.89543 27 9H4Z" fill="#58B04B"/>
  </symbol>
  <symbol id="share-google" viewBox="0 0 32 32" fill="none">
    <path d="M20.9795 17.7165C20.9795 17.2567 20.9422 16.9212 20.8614 16.5732H15.6113V18.6484H18.693C18.6309 19.1641 18.2954 19.9408 17.5498 20.4626L17.5394 20.5321L19.1994 21.8181L19.3144 21.8296C20.3706 20.8541 20.9795 19.4188 20.9795 17.7165Z" fill="#4285F4"/>
    <path d="M15.6116 23.1841C17.1214 23.1841 18.3888 22.6871 19.3146 21.8297L17.5501 20.4627C17.0779 20.792 16.4441 21.0219 15.6116 21.0219C14.1329 21.0219 12.8778 20.0465 12.4304 18.6982L12.3649 18.7038L10.6388 20.0396L10.6162 20.1024C11.5357 21.929 13.4246 23.1841 15.6116 23.1841Z" fill="#34A853"/>
    <path d="M12.4302 18.698C12.3122 18.35 12.2438 17.9772 12.2438 17.592C12.2438 17.2068 12.3122 16.834 12.424 16.4861L12.4209 16.412L10.6732 15.0547L10.616 15.0819C10.237 15.8399 10.0195 16.6911 10.0195 17.592C10.0195 18.4929 10.237 19.3441 10.616 20.1021L12.4302 18.698Z" fill="#FBBC05"/>
    <path d="M15.6116 14.1622C16.6616 14.1622 17.3699 14.6157 17.7738 14.9947L19.3519 13.4539C18.3827 12.553 17.1214 12 15.6116 12C13.4246 12 11.5357 13.255 10.6162 15.0817L12.4242 16.4859C12.8778 15.1376 14.1329 14.1622 15.6116 14.1622Z" fill="#EB4335"/>
    <rect x="3.6" y="6.6" width="23.8" height="20.8" rx="3.4" stroke="#8491A7" stroke-width="1.2"/>
    <path d="M4 9C4 7.89543 4.89543 7 6 7H25C26.1046 7 27 7.89543 27 9H4Z" fill="#8491A7"/>
    <path d="M11 4L11 8" stroke="#8491A7" stroke-width="1.2" stroke-linecap="round"/>
    <path d="M20 4L20 8" stroke="#8491A7" stroke-width="1.2" stroke-linecap="round"/>
  </symbol>
  <symbol id="share-url" viewBox="0 0 32 32" fill="none">
    <g clip-path="url(#clip-share-url-1)">
      <path d="M11.0783 23.0805C10.4174 23.3985 9.67403 23.5034 8.95092 23.3808C8.22781 23.2581 7.56062 22.914 7.0415 22.3959C6.71138 22.0669 6.44945 21.676 6.27072 21.2456C6.092 20.8151 6 20.3537 6 19.8876C6 19.4216 6.092 18.9601 6.27072 18.5297C6.44945 18.0993 6.71138 17.7083 7.0415 17.3794L13.7223 10.7104C14.3862 10.0473 15.2862 9.6748 16.2246 9.6748C17.163 9.6748 18.063 10.0473 18.727 10.7104C19.3901 11.3743 19.7626 12.2744 19.7626 13.2127C19.7626 14.1511 19.3901 15.0511 18.727 15.7151L16.2246 18.2174" stroke="#8491A7" stroke-width="1.5" stroke-linecap="round" stroke-linejoin="round"/>
      <path d="M21.3698 8.35015C22.0307 8.03215 22.7741 7.92722 23.4972 8.04985C24.2203 8.17249 24.8875 8.51663 25.4066 9.03475C25.7367 9.36373 25.9987 9.75463 26.1774 10.1851C26.3561 10.6155 26.4481 11.0769 26.4481 11.543C26.4481 12.009 26.3561 12.4705 26.1774 12.9009C25.9987 13.3314 25.7367 13.7223 25.4066 14.0512L18.7258 20.7202C18.0619 21.3833 17.1619 21.7558 16.2235 21.7558C15.2851 21.7558 14.3851 21.3833 13.7211 20.7202C13.058 20.0563 12.6855 19.1563 12.6855 18.2179C12.6855 17.2795 13.058 16.3795 13.7211 15.7155L16.2235 13.2132" stroke="#8491A7" stroke-width="1.5" stroke-linecap="round" stroke-linejoin="round"/>
    </g>
    <defs>
      <clipPath id="clip-share-url-1">
        <rect width="32" height="32" fill="white"/>
      </clipPath>
    </defs>
  </symbol>
  <symbol id="tab-chevron-left" viewBox="0 0 32 32" fill="none">
    <path d="M22 28L10 16L22 4" stroke="currentColor" stroke-width="2" stroke-linecap="round" stroke-linejoin="round"/>
  </symbol>
  <symbol id="tab-chevron-right" viewBox="0 0 32 32" fill="none">
    <path d="M10 28L22 16L10 4" stroke="currentColor" stroke-width="2" stroke-linecap="round" stroke-linejoin="round"/>
  </symbol>
  <symbol id="rectangle-chevron-left" viewBox="0 0 16 16" fill="none">
    <path d="M10.6667 14.6663L4 7.99967L10.6667 1.33301" stroke="currentColor" stroke-linecap="round" stroke-linejoin="round"/>
  </symbol>
  <symbol id="rectangle-chevron-right" viewBox="0 0 16 16" fill="none">
    <path d="M5.33301 14.6663L11.9495 7.99967L5.33301 1.33301" stroke="currentColor" stroke-linecap="round" stroke-linejoin="round"/>
  </symbol>
  <symbol id="circle-chevron-left" viewBox="0 0 32 32" fill="none">
    <circle cx="16" cy="16" r="15.5" transform="rotate(180 16 16)" fill="none" stroke="#EAEDF4"/>
    <path d="M17.5 10.5L12.5 15.5L17.5 20.5" stroke="currentColor" stroke-width="1.5" stroke-linecap="round" stroke-linejoin="round"/>
  </symbol>
  <symbol id="circle-chevron-right" viewBox="0 0 32 32" fill="none">
    <circle cx="16" cy="16" r="15.5" fill="none" stroke="#EAEDF4"/>
    <path d="M14.5 21.5L19.5 16.5L14.5 11.5" stroke="currentColor" stroke-width="1.5" stroke-linecap="round" stroke-linejoin="round"/>
  </symbol>
  <symbol id="half-rectangle-chevron-left" viewBox="0 0 24 24" fill="none">
    <path d="M4 0.5H23.5V23.5H4C2.067 23.5 0.5 21.933 0.5 20V4C0.5 2.067 2.067 0.5 4 0.5Z" fill="none" stroke="#DDDDDD"/>
    <path d="M13.7137 8.40039L10.2852 12.0004L13.7137 15.6004" stroke="currentColor"/>
  </symbol>
  <symbol id="half-rectangle-chevron-right" viewBox="0 0 24 24" fill="none">
    <path d="M23.5 4C23.5 2.067 21.933 0.5 20 0.5H0.5V23.5H20C21.933 23.5 23.5 21.933 23.5 20V4Z" fill="none" stroke="#DDDDDD"/>
    <path d="M10.2863 8.40039L13.7148 12.0004L10.2863 15.6004" stroke="currentColor"/>
  </symbol>
  <symbol id="datepicker-prev" viewBox="0 0 16 16" fill="none">
    <path d="M10 12L6 8L10 4" stroke="currentColor" stroke-linecap="round"/>
  </symbol>
  <symbol id="datepicker-next" viewBox="0 0 16 16" fill="none">
    <path d="M6 12L10 8L6 4" stroke="currentColor" stroke-linecap="round"/>
  </symbol>
  <symbol id="check-circle" viewBox="0 0 32 32" stroke-width="0">
    <circle cx="16" cy="16" r="13" />
    <path d="M12 17.0624L15.256 19.4L20 13" stroke="currentColor" stroke-width="1.5" stroke-linecap="round" stroke-linejoin="round"/>
  </symbol>
  <symbol id="unsubscribe" viewBox="0 0 16 16" fill="none">
    <path d="M3 6.76471L7.55172 11L14 5" stroke="currentColor"/>
  </symbol>
  <symbol id="checkbox" viewBox="0 0 20 20">
    <path fill-rule="evenodd" clip-rule="evenodd" d="M0 4C0 1.79086 1.79086 0 4 0H16C18.2091 0 20 1.79086 20 4V16C20 18.2091 18.2091 20 16 20H4C1.79086 20 0 18.2091 0 16V4Z" fill="inherit" />
    <path d="M14.287 6.29886C14.6742 5.90507 15.3074 5.89975 15.7011 6.28698C16.0646 6.64442 16.0971 7.2114 15.7954 7.60624L15.713 7.70114L9.81303 13.7011C9.46553 14.0545 8.91768 14.0964 8.52288 13.8168L8.42758 13.7402L5.32758 10.9238C4.9188 10.5525 4.88847 9.92002 5.25985 9.51124C5.60265 9.13391 6.1679 9.07904 6.57435 9.36493L6.67244 9.44351L9.06001 11.612L14.287 6.29886Z" fill="currentColor"/>
  </symbol>
  <symbol id="search-delete" viewBox="0 0 16 16">
    <circle cx="8" cy="8" r="8" fill="#8491A7"/>
    <path d="M11.4667 4L12 4.53333L4.53333 12L4 11.4667L11.4667 4Z" fill="white"/>
    <path d="M4.53333 4L12 11.4667L11.4667 12L4 4.53333L4.53333 4Z" fill="white"/>
  </symbol>
  <symbol id="search-icon" viewBox="0 0 16 16">
    <path fill-rule="evenodd" clip-rule="evenodd" d="M7 0C10.866 0 14 3.13401 14 7C14 8.75589 13.3535 10.3608 12.2855 11.5896L12.3536 11.6464L15.7477 15.0406C15.9429 15.2358 15.9429 15.5524 15.7477 15.7477C15.5741 15.9212 15.3047 15.9405 15.1098 15.8055L15.0406 15.7477L11.6464 12.3536C11.6251 12.3323 11.6062 12.3095 11.5895 12.2856C10.3607 13.3535 8.75584 14 7 14C3.13401 14 0 10.866 0 7C0 3.13401 3.13401 0 7 0ZM7 1C3.68629 1 1 3.68629 1 7C1 10.3137 3.68629 13 7 13C10.3137 13 13 10.3137 13 7C13 3.68629 10.3137 1 7 1Z" fill="#67738E"/>
  </symbol>
  <symbol id="search-button-icon" viewBox="0 0 11 11">
    <rect y="1" width="11" height="1" fill="#67738E"/>
    <rect y="5" width="11" height="1" fill="#67738E"/>
    <rect y="9" width="11" height="1" fill="#67738E"/>
    <circle cx="2.5" cy="1.5" r="0.5" fill="#67738E" stroke="#67738E" stroke-width="1.3"/>
    <circle cx="8.5" cy="5.5" r="0.5" fill="#67738E" stroke="#67738E" stroke-width="1.3"/>
    <circle cx="4.5" cy="9.5" r="0.5" fill="#67738E" stroke="#67738E" stroke-width="1.3"/>
  </symbol>
  <symbol id="refresh" viewBox="0 0 16 16" fill="none">
    <path fill-rule="evenodd" clip-rule="evenodd" d="M13.4106 6.74015L14.2443 5.29621C14.3824 5.05706 14.6882 4.97512 14.9273 5.11319C15.1665 5.25126 15.2484 5.55706 15.1103 5.79621L13.5065 8.57411C13.3684 8.81326 13.0626 8.89519 12.8235 8.75712L12.8187 8.75433L12.8138 8.75153L12.8089 8.74872L12.804 8.74589L12.7991 8.74306L12.7942 8.74021L12.7892 8.73735L12.7843 8.73448L12.7793 8.7316L12.7743 8.7287L12.7692 8.7258L12.7642 8.72289L12.7591 8.71996L12.754 8.71702L12.7489 8.71407L12.7438 8.71112L12.7387 8.70815L12.7335 8.70517L12.7283 8.70218L12.7231 8.69918L12.7179 8.69617L12.7127 8.69314L12.7074 8.69011L12.7022 8.68707L12.6969 8.68402L12.6916 8.68095L12.6862 8.67788L12.6809 8.6748L12.6755 8.6717L12.6702 8.6686L12.6648 8.66549L12.6594 8.66236L12.6539 8.65923L12.6485 8.65609L12.643 8.65294L12.6376 8.64978L12.6321 8.64661L12.6266 8.64343L12.621 8.64024L12.6155 8.63704L12.6099 8.63383L12.6044 8.63061L12.5988 8.62739L12.5932 8.62415L12.5876 8.6209L12.5819 8.61765L12.5763 8.61439L12.5706 8.61112L12.5649 8.60784L12.5592 8.60455L12.5535 8.60125L12.5478 8.59794L12.542 8.59463L12.5363 8.59131L12.5305 8.58797L12.5247 8.58463L12.5189 8.58128L12.5131 8.57793L12.5073 8.57456L12.5015 8.57119L12.4956 8.56781L12.4897 8.56442L12.4838 8.56102L12.4779 8.55762L12.472 8.55421L12.4661 8.55079L12.4602 8.54736L12.4542 8.54392L12.4483 8.54048L12.4423 8.53703L12.4363 8.53357L12.4303 8.5301L12.4243 8.52663L12.4182 8.52315L12.4122 8.51966L12.4061 8.51617L12.4001 8.51267L12.394 8.50916L12.3879 8.50564L12.3818 8.50212L12.3757 8.49859L12.3696 8.49505L12.3634 8.49151L12.3573 8.48796L12.3511 8.48441L12.345 8.48084L12.3388 8.47727L12.3326 8.4737L12.3264 8.47012L12.3202 8.46653L12.3139 8.46293L12.3077 8.45933L12.3015 8.45572L12.2952 8.45211L12.2889 8.44849L12.2827 8.44487L12.2764 8.44124L12.2701 8.4376L12.2638 8.43396L12.2574 8.43031L12.2511 8.42666L12.2448 8.423L12.2384 8.41933L12.2321 8.41566L12.2257 8.41199L12.2193 8.4083L12.2129 8.40462L12.2065 8.40093L12.2001 8.39723L12.1937 8.39353L12.1873 8.38982L12.1809 8.38611L12.1744 8.38239L12.168 8.37867L12.1615 8.37495L12.1551 8.37121L12.1486 8.36748L12.1421 8.36374L12.1356 8.35999L12.1292 8.35624L12.1227 8.35249L12.1161 8.34873L12.1096 8.34497L12.1031 8.3412L12.0966 8.33743L12.09 8.33366L12.0835 8.32988L12.0769 8.32609L12.0704 8.32231L12.0638 8.31852L12.0572 8.31472L12.0507 8.31092L12.0441 8.30712L12.0375 8.30332L12.0309 8.29951L12.0243 8.29569L12.0177 8.29188L12.011 8.28806L12.0044 8.28423L11.9978 8.28041L11.9912 8.27658L11.9845 8.27275L11.9779 8.26891L11.9712 8.26507L11.9646 8.26123L11.9579 8.25738L11.9513 8.25354L11.9446 8.24969L11.9379 8.24583L11.9312 8.24198L11.9246 8.23812L11.9179 8.23426L11.9112 8.23039L11.9045 8.22653L11.8978 8.22266L11.8911 8.21879L11.8844 8.21492L11.8777 8.21104L11.8709 8.20716L11.8642 8.20328L11.8575 8.1994L11.8508 8.19552L11.844 8.19164L11.8373 8.18775L11.8306 8.18386L11.8238 8.17997L11.8171 8.17608L11.8104 8.17218L11.8036 8.16829L11.7969 8.16439L11.7901 8.16049L11.7833 8.15659L11.7766 8.15269L11.7698 8.14879L11.7631 8.14489L11.7563 8.14099L11.7495 8.13708L11.7428 8.13317L11.736 8.12927L11.7292 8.12536L11.7225 8.12145L11.7157 8.11754L11.7089 8.11363L11.7022 8.10972L11.6954 8.10581L11.6886 8.1019L11.6818 8.09799L11.6751 8.09407L11.6683 8.09016L11.6615 8.08625L11.6547 8.08233L11.6479 8.07842L11.6412 8.07451L11.6344 8.07059L11.6276 8.06668L11.6208 8.06277L11.6141 8.05885L11.6073 8.05494L11.6005 8.05103L11.5937 8.04712L11.587 8.0432L11.5802 8.03929L11.5734 8.03538L11.5666 8.03147L11.5599 8.02756L11.5531 8.02365L11.5463 8.01975L11.5396 8.01584L11.5328 8.01193L11.526 8.00803L11.5193 8.00412L11.5125 8.00022L11.5057 7.99632L11.499 7.99242L11.4922 7.98852L11.4855 7.98462L11.4787 7.98072L11.472 7.97683L11.4652 7.97293L11.4585 7.96904L11.4518 7.96515L11.445 7.96126L11.4383 7.95737L11.4316 7.95349L11.4248 7.9496L11.4181 7.94572L11.4114 7.94184L11.4047 7.93796L11.398 7.93409L11.3913 7.93022L11.3845 7.92634L11.3778 7.92248L11.3711 7.91861L11.3645 7.91475L11.3578 7.91088L11.3511 7.90702L11.3444 7.90317L11.3377 7.89931L11.3311 7.89546L11.3244 7.89161L11.3177 7.88777L11.3111 7.88393L11.3044 7.88009L11.2978 7.87625L11.2911 7.87242L11.2845 7.86859L11.2779 7.86476L11.2713 7.86094L11.2646 7.85712L11.258 7.8533L11.2514 7.84948L11.2448 7.84567L11.2382 7.84187L11.2316 7.83806L11.2251 7.83426L11.2185 7.83047L11.2119 7.82668L11.2054 7.82289L11.1988 7.81911L11.1923 7.81532L11.1857 7.81155L11.1792 7.80778L11.1727 7.80401L11.1661 7.80025L11.1596 7.79649L11.1531 7.79273L11.1466 7.78898L11.1401 7.78524L11.1337 7.78149L11.1272 7.77776L11.1207 7.77402L11.1143 7.7703L11.1078 7.76657L11.1014 7.76286L11.0949 7.75914L11.0885 7.75544L11.0821 7.75173L11.0757 7.74803L11.0693 7.74434L11.0629 7.74065L11.0565 7.73697L11.0502 7.73329L11.0438 7.72962L11.0375 7.72596L11.0311 7.7223L11.0248 7.71864L11.0185 7.71499L11.0122 7.71135L11.0059 7.70771L10.9996 7.70408L10.9933 7.70045L10.987 7.69683L10.9808 7.69322L10.9745 7.68961L10.9683 7.68601L10.962 7.68241L10.9558 7.67882L10.9496 7.67524L10.9434 7.67166L10.9372 7.66809L10.9311 7.66452L10.9249 7.66097L10.9187 7.65741L10.9126 7.65387L10.9065 7.65033L10.9004 7.6468L10.8943 7.64328L10.8882 7.63976L10.8821 7.63625L10.876 7.63274L10.87 7.62925L10.8639 7.62576L10.8579 7.62228L10.8519 7.6188L10.8459 7.61533L10.8399 7.61187L10.8339 7.60842L10.8279 7.60498L10.822 7.60154L10.816 7.59811L10.8101 7.59469L10.8042 7.59127L10.7983 7.58787L10.7924 7.58447L10.7865 7.58108L10.7807 7.57769L10.7748 7.57432L10.769 7.57095L10.7632 7.56759L10.7574 7.56424L10.7516 7.5609L10.7458 7.55757L10.74 7.55424L10.7343 7.55092L10.7286 7.54762L10.7229 7.54432L10.7172 7.54102L10.7115 7.53774L10.7058 7.53447L10.7001 7.5312L10.6945 7.52795L10.6889 7.5247L10.6833 7.52146L10.6777 7.51823L10.6721 7.51501L10.6665 7.5118L10.661 7.5086L10.6555 7.50541L10.65 7.50223L10.6445 7.49905L10.639 7.49589L10.6335 7.49274L10.6281 7.48959L10.6226 7.48646L10.6172 7.48333L10.6118 7.48022L10.6065 7.47711L10.6011 7.47402L10.5957 7.47093L10.5904 7.46785L10.5851 7.46479L10.5798 7.46173L10.5745 7.45869L10.5693 7.45565L10.564 7.45263L10.5588 7.44962L10.5536 7.44661L10.5484 7.44362L10.5433 7.44064L10.5381 7.43767L10.533 7.4347L10.5279 7.43175L10.5228 7.42882L10.5177 7.42589L10.5127 7.42297L10.5076 7.42006L10.5026 7.41717L10.4976 7.41428L10.4927 7.41141L10.4877 7.40855L10.4828 7.4057L10.4778 7.40286L10.4729 7.40003L10.4681 7.39721L10.4632 7.39441L10.4584 7.39162L10.4535 7.38883L10.4488 7.38607L10.444 7.38331L10.4392 7.38056L10.4345 7.37783L10.4298 7.3751L10.4251 7.37239L10.4204 7.3697L10.4157 7.36701L10.4111 7.36434L10.4065 7.36168L10.4019 7.35903L10.3974 7.35639L10.3928 7.35377L10.3883 7.35115L10.3838 7.34856L10.3793 7.34597L10.3748 7.3434L10.3704 7.34083L10.366 7.33829L10.3616 7.33575L10.3572 7.33323L10.3529 7.33072L10.3486 7.32822L10.3443 7.32574L10.34 7.32327L10.3357 7.32081L10.3315 7.31837L10.3273 7.31594L10.3231 7.31352L10.3189 7.31112L10.3148 7.30873L10.3107 7.30636L10.3066 7.30399L10.3025 7.30165L10.2985 7.29931L10.2945 7.29699L10.2905 7.29468L10.2865 7.29239L10.2826 7.29011L10.2786 7.28785L10.2747 7.2856L10.2709 7.28336L10.267 7.28114L10.2632 7.27893L10.2594 7.27674L10.2556 7.27456L10.2519 7.27239L10.2481 7.27025L10.2444 7.26811L10.2408 7.26599L10.2371 7.26388L10.2335 7.26179L10.2299 7.25972L10.2263 7.25766L10.2228 7.25561L10.2193 7.25358L10.2158 7.25156L10.2123 7.24956L10.2089 7.24758L10.2055 7.24561L10.2021 7.24365L10.1987 7.24171L10.1954 7.23979L10.1921 7.23788L10.1888 7.23599L10.1856 7.23411L10.1823 7.23225L10.1791 7.23041L10.176 7.22858L10.1728 7.22676L10.1697 7.22497L10.1666 7.22318L10.1636 7.22142L10.1605 7.21967L10.1575 7.21794L10.1546 7.21622L10.1516 7.21452L10.1487 7.21284L10.1458 7.21117L10.143 7.20952L10.1401 7.20788L10.1373 7.20626L10.1346 7.20466L10.1318 7.20308L10.1291 7.20151L10.1264 7.19996L10.1238 7.19843L10.1211 7.19691L10.1185 7.19541L10.116 7.19393L10.1134 7.19246L10.1109 7.19101L10.1084 7.18958L10.106 7.18817L10.1036 7.18677L10.1012 7.1854L10.0988 7.18403L10.0965 7.18269L10.0942 7.18137L10.0919 7.18006L10.0897 7.17877L10.0875 7.1775L10.0853 7.17624L10.0832 7.175L10.0811 7.17379L10.079 7.17259L10.0769 7.1714L10.0749 7.17024L10.0729 7.16909L10.071 7.16797L10.0691 7.16686L10.0672 7.16577L10.0653 7.1647L10.0635 7.16364L10.0617 7.16261L10.06 7.16159L10.0582 7.16059L10.0565 7.15962L10.0549 7.15866L10.0532 7.15772L10.0516 7.15679L10.0501 7.15589L10.0486 7.15501L10.0471 7.15414L10.0456 7.1533C9.80644 7.01523 9.72451 6.70943 9.86258 6.47029C10.0006 6.23114 10.3064 6.1492 10.5456 6.28727L10.5471 6.28812L10.5486 6.28898L10.5501 6.28987L10.5516 6.29077L10.5532 6.29169L10.5549 6.29263L10.5565 6.29359L10.5582 6.29457L10.56 6.29557L10.5617 6.29658L10.5635 6.29762L10.5653 6.29867L10.5672 6.29974L10.5691 6.30083L10.571 6.30194L10.5729 6.30307L10.5749 6.30421L10.5769 6.30538L10.579 6.30656L10.5811 6.30776L10.5832 6.30898L10.5853 6.31022L10.5875 6.31147L10.5897 6.31274L10.5919 6.31403L10.5942 6.31534L10.5965 6.31667L10.5988 6.31801L10.6012 6.31937L10.6036 6.32075L10.606 6.32214L10.6084 6.32356L10.6109 6.32499L10.6134 6.32644L10.616 6.3279L10.6185 6.32938L10.6211 6.33088L10.6238 6.3324L10.6264 6.33394L10.6291 6.33549L10.6318 6.33705L10.6346 6.33864L10.6373 6.34024L10.6401 6.34186L10.643 6.34349L10.6458 6.34514L10.6487 6.34681L10.6516 6.34849L10.6546 6.35019L10.6575 6.35191L10.6605 6.35364L10.6636 6.35539L10.6666 6.35716L10.6697 6.35894L10.6728 6.36074L10.676 6.36255L10.6791 6.36438L10.6823 6.36623L10.6856 6.36809L10.6888 6.36996L10.6921 6.37186L10.6954 6.37376L10.6987 6.37569L10.7021 6.37763L10.7055 6.37958L10.7089 6.38155L10.7123 6.38354L10.7158 6.38554L10.7193 6.38755L10.7228 6.38959L10.7263 6.39163L10.7299 6.39369L10.7335 6.39577L10.7371 6.39786L10.7408 6.39996L10.7444 6.40208L10.7481 6.40422L10.7519 6.40637L10.7556 6.40853L10.7594 6.41071L10.7632 6.41291L10.767 6.41511L10.7709 6.41734L10.7747 6.41957L10.7786 6.42182L10.7826 6.42409L10.7865 6.42637L10.7905 6.42866L10.7945 6.43097L10.7985 6.43329L10.8025 6.43562L10.8066 6.43797L10.8107 6.44033L10.8148 6.44271L10.8189 6.4451L10.8231 6.4475L10.8273 6.44992L10.8315 6.45235L10.8357 6.45479L10.84 6.45725L10.8443 6.45972L10.8486 6.4622L10.8529 6.46469L10.8572 6.4672L10.8616 6.46973L10.866 6.47226L10.8704 6.47481L10.8748 6.47737L10.8793 6.47994L10.8838 6.48253L10.8883 6.48513L10.8928 6.48774L10.8974 6.49037L10.9019 6.493L10.9065 6.49565L10.9111 6.49831L10.9157 6.50099L10.9204 6.50367L10.9251 6.50637L10.9298 6.50908L10.9345 6.5118L10.9392 6.51454L10.944 6.51728L10.9488 6.52004L10.9536 6.52281L10.9584 6.52559L10.9632 6.52838L10.9681 6.53119L10.9729 6.534L10.9778 6.53683L10.9828 6.53967L10.9877 6.54252L10.9927 6.54538L10.9976 6.54826L11.0026 6.55114L11.0076 6.55404L11.0127 6.55694L11.0177 6.55986L11.0228 6.56279L11.0279 6.56573L11.033 6.56868L11.0381 6.57164L11.0433 6.57461L11.0484 6.57759L11.0536 6.58059L11.0588 6.58359L11.064 6.58661L11.0693 6.58963L11.0745 6.59266L11.0798 6.59571L11.0851 6.59876L11.0904 6.60183L11.0957 6.60491L11.1011 6.60799L11.1065 6.61109L11.1118 6.61419L11.1172 6.61731L11.1226 6.62043L11.1281 6.62357L11.1335 6.62671L11.139 6.62987L11.1445 6.63303L11.15 6.6362L11.1555 6.63939L11.161 6.64258L11.1665 6.64578L11.1721 6.64899L11.1777 6.65221L11.1833 6.65544L11.1889 6.65868L11.1945 6.66192L11.2001 6.66518L11.2058 6.66844L11.2115 6.67172L11.2172 6.675L11.2229 6.67829L11.2286 6.68159L11.2343 6.6849L11.24 6.68822L11.2458 6.69154L11.2516 6.69487L11.2574 6.69822L11.2632 6.70157L11.269 6.70493L11.2748 6.70829L11.2807 6.71167L11.2865 6.71505L11.2924 6.71844L11.2983 6.72184L11.3042 6.72525L11.3101 6.72866L11.316 6.73208L11.322 6.73551L11.3279 6.73895L11.3339 6.7424L11.3399 6.74585L11.3459 6.74931L11.3519 6.75278L11.3579 6.75625L11.3639 6.75973L11.37 6.76322L11.376 6.76672L11.3821 6.77022L11.3882 6.77373L11.3943 6.77725L11.4004 6.78078L11.4065 6.78431L11.4126 6.78784L11.4187 6.79139L11.4249 6.79494L11.4311 6.7985L11.4372 6.80206L11.4434 6.80563L11.4496 6.80921L11.4558 6.81279L11.462 6.81638L11.4683 6.81998L11.4745 6.82358L11.4808 6.82719L11.487 6.83081L11.4933 6.83443L11.4996 6.83805L11.5059 6.84168L11.5122 6.84532L11.5185 6.84897L11.5248 6.85262L11.5311 6.85627L11.5375 6.85993L11.5438 6.8636L11.5502 6.86727L11.5565 6.87095L11.5629 6.87463L11.5693 6.87832L11.5757 6.88201L11.5821 6.88571L11.5885 6.88941L11.5949 6.89312L11.6014 6.89683L11.6078 6.90055L11.6143 6.90427L11.6207 6.908L11.6272 6.91173L11.6337 6.91547L11.6401 6.91921L11.6466 6.92296L11.6531 6.92671L11.6596 6.93046L11.6661 6.93422L11.6727 6.93798L11.6792 6.94175L11.6857 6.94552L11.6923 6.9493L11.6988 6.95308L11.7054 6.95686L11.7119 6.96065L11.7185 6.96444L11.7251 6.96824L11.7316 6.97204L11.7382 6.97584L11.7448 6.97965L11.7514 6.98346L11.758 6.98727L11.7646 6.99109L11.7713 6.99491L11.7779 6.99873L11.7845 7.00256L11.7911 7.00639L11.7978 7.01023L11.8044 7.01406L11.8111 7.0179L11.8177 7.02174L11.8244 7.02559L11.8311 7.02944L11.8377 7.03329L11.8444 7.03714L11.8511 7.041L11.8578 7.04486L11.8645 7.04872L11.8711 7.05258L11.8778 7.05645L11.8845 7.06032L11.8913 7.06419L11.898 7.06806L11.9047 7.07194L11.9114 7.07582L11.9181 7.0797L11.9248 7.08358L11.9316 7.08746L11.9383 7.09135L11.945 7.09524L11.9518 7.09912L11.9585 7.10301L11.9652 7.10691L11.972 7.1108L11.9787 7.1147L11.9855 7.11859L11.9922 7.12249L11.999 7.12639L12.0057 7.13029L12.0125 7.13419L12.0193 7.1381L12.026 7.142L12.0328 7.14591L12.0396 7.14981L12.0463 7.15372L12.0531 7.15763L12.0599 7.16154L12.0666 7.16545L12.0734 7.16936L12.0802 7.17327L12.087 7.17718L12.0937 7.18109L12.1005 7.185L12.1073 7.18892L12.1141 7.19283L12.1208 7.19674L12.1276 7.20066L12.1344 7.20457L12.1412 7.20848L12.1479 7.2124L12.1547 7.21631L12.1615 7.22022L12.1683 7.22414L12.1751 7.22805L12.1818 7.23196L12.1886 7.23587L12.1954 7.23978L12.2022 7.2437L12.2089 7.24761L12.2157 7.25152L12.2225 7.25543L12.2292 7.25933L12.236 7.26324L12.2428 7.26715L12.2495 7.27106L12.2563 7.27496L12.2631 7.27886L12.2698 7.28277L12.2766 7.28667L12.2833 7.29057L12.2901 7.29447L12.2969 7.29837L12.3036 7.30226L12.3104 7.30616L12.3171 7.31005L12.3238 7.31394L12.3296 7.31728C12.239 6.35787 11.8487 5.44702 11.2085 4.71701C10.4726 3.87796 9.45687 3.33502 8.35042 3.18935C7.24397 3.04369 6.1223 3.30522 5.19438 3.92524C4.26646 4.54525 3.59558 5.48146 3.30674 6.55943C3.0179 7.6374 3.13079 8.78362 3.62439 9.78453C4.11798 10.7854 4.95861 11.5728 5.98966 11.9998C7.0207 12.4269 8.17185 12.4646 9.22862 12.1059C10.2854 11.7472 11.1757 11.0165 11.7337 10.05L11.8636 10.125L12.5997 10.55L12.7296 10.625L12.7291 10.626C12.5606 10.9177 12.3678 11.1923 12.1538 11.4472C11.4818 12.2476 10.5998 12.8549 9.59828 13.1948C8.27731 13.6433 6.83838 13.5961 5.54957 13.0623C4.26076 12.5285 3.20997 11.5443 2.59298 10.2932C1.97599 9.04202 1.83487 7.60925 2.19593 6.26179C2.55698 4.91433 3.39557 3.74407 4.55547 2.96905C5.71537 2.19403 7.11746 1.86711 8.50053 2.04919C9.88359 2.23128 11.1533 2.90995 12.0731 3.95876C12.7682 4.75145 13.2277 5.7147 13.4106 6.74015Z" fill="currentColor"/>
  </symbol>
  <symbol id="chevron-right" viewBox="0 0 16 16" fill="none">
    <path d="M6 12L10 8L6 4" stroke="currentColor" stroke-linecap="round"/>
  </symbol>
  <symbol id="badge-new" viewBox="0 0 16 16" fill="none">
    <path fill-rule="evenodd" clip-rule="evenodd" d="M4 1C2.34315 1 1 2.34315 1 4V12C1 13.6569 2.34315 15 4 15H12C13.6569 15 15 13.6569 15 12V4C15 2.34315 13.6569 1 12 1H4ZM6.15338 4.45585C5.64443 3.84512 4.65039 4.20501 4.65039 5.00001V11L4.65701 11.1066C4.70946 11.5257 5.06706 11.85 5.50039 11.85L5.60701 11.8434C6.02613 11.7909 6.35039 11.4333 6.35039 11V7.34801L9.8474 11.5442C10.3564 12.1549 11.3504 11.795 11.3504 11V5.00001L11.3438 4.89339C11.2913 4.47427 10.9337 4.15001 10.5004 4.15001L10.3938 4.15663C9.97465 4.20908 9.65039 4.56668 9.65039 5.00001V8.65301L6.15338 4.45585Z" fill="currentColor"/>
  </symbol>

</svg>
